<?xml version="1.0" encoding="UTF-8"?>
<svg width="228px" height="178px" viewBox="0 0 228 178" version="1.1" xmlns="http://www.w3.org/2000/svg">
  <g stroke="none" stroke-width="1" fill="none" fill-rule="evenodd">
    <path d="M82.2,0.1 C36.8,0.1 0,36.9 0,82.3 C0,127.7 36.8,164.5 82.2,164.5 L135.5,164.5 L135.5,142.3 L82.2,142.3 C49.4,142.3 22.2,115.1 22.2,82.3 C22.2,49.5 49.4,22.3 82.2,22.3 C115,22.3 142.2,49.5 142.2,82.3 L142.2,85.6 L135.5,85.6 L135.5,116.8 L142.2,116.8 L142.2,123.4 L180.1,123.4 C206.6,123.4 228,102.1 228,75.5 C228,49 206.6,27.6 180.1,27.6 L135.5,27.6 L135.5,49.8 L180.1,49.8 C194.2,49.8 205.8,61.4 205.8,75.5 C205.8,89.6 194.2,101.2 180.1,101.2 L148.8,101.2 L202.9,75.5 L148.8,49.8 L148.8,22.3 L180.1,22.3 C218.4,22.3 249,50.7 249,89.1 C249,127.5 218.4,155.9 180.1,155.9 L142.2,155.9 L142.2,178 L180.1,178 C224.5,178 261,141.6 261,96.1 C261,50.7 224.5,14.2 180.1,14.2 L82.2,14.2 L82.2,0 L82.2,0.1 Z M135.5,63.9 L202.9,85.6 L135.5,107.4 L135.5,63.9 Z" fill="#49C5B6" transform="translate(0, -1)"></path>
  </g>
</svg>